<mxfile host="app.diagrams.net" modified="2023-01-08T16:13:00.359Z" agent="5.0 (Windows NT 10.0; Win64; x64) AppleWebKit/537.36 (KHTML, like Gecko) Chrome/108.0.0.0 Safari/537.36 Edg/108.0.1462.54" version="20.8.3" etag="AQXkt1swT-q89iPV9cjp" type="github">
  <diagram id="wU-MZU1ki5H1QDvkkrNs" name="Strona-1">
    <mxGraphModel dx="1514" dy="813" grid="1" gridSize="10" guides="1" tooltips="1" connect="1" arrows="1" fold="1" page="1" pageScale="1" pageWidth="827" pageHeight="1169" math="0" shadow="0">
      <root>
        <mxCell id="0" />
        <mxCell id="1" parent="0" />
        <mxCell id="NCf4MELzwFDsRm1iRGMm-1" value="Kurek" style="rounded=1;whiteSpace=wrap;html=1;" vertex="1" parent="1">
          <mxGeometry x="354" y="170" width="120" height="60" as="geometry" />
        </mxCell>
        <mxCell id="NCf4MELzwFDsRm1iRGMm-21" value="" style="edgeStyle=orthogonalEdgeStyle;rounded=0;orthogonalLoop=1;jettySize=auto;html=1;" edge="1" parent="1" source="NCf4MELzwFDsRm1iRGMm-2" target="NCf4MELzwFDsRm1iRGMm-20">
          <mxGeometry relative="1" as="geometry" />
        </mxCell>
        <mxCell id="NCf4MELzwFDsRm1iRGMm-2" value="web developer" style="rounded=1;whiteSpace=wrap;html=1;" vertex="1" parent="1">
          <mxGeometry x="90" y="320" width="120" height="60" as="geometry" />
        </mxCell>
        <mxCell id="NCf4MELzwFDsRm1iRGMm-13" value="" style="edgeStyle=orthogonalEdgeStyle;rounded=0;orthogonalLoop=1;jettySize=auto;html=1;" edge="1" parent="1" source="NCf4MELzwFDsRm1iRGMm-3" target="NCf4MELzwFDsRm1iRGMm-12">
          <mxGeometry relative="1" as="geometry" />
        </mxCell>
        <mxCell id="NCf4MELzwFDsRm1iRGMm-3" value="Python developer" style="rounded=1;whiteSpace=wrap;html=1;" vertex="1" parent="1">
          <mxGeometry x="610" y="320" width="120" height="60" as="geometry" />
        </mxCell>
        <mxCell id="NCf4MELzwFDsRm1iRGMm-5" value="" style="curved=1;endArrow=classic;html=1;rounded=0;exitX=0.5;exitY=1;exitDx=0;exitDy=0;entryX=0.5;entryY=0;entryDx=0;entryDy=0;" edge="1" parent="1" source="NCf4MELzwFDsRm1iRGMm-1" target="NCf4MELzwFDsRm1iRGMm-3">
          <mxGeometry width="50" height="50" relative="1" as="geometry">
            <mxPoint x="390" y="440" as="sourcePoint" />
            <mxPoint x="440" y="390" as="targetPoint" />
            <Array as="points">
              <mxPoint x="420" y="300" />
              <mxPoint x="620" y="250" />
            </Array>
          </mxGeometry>
        </mxCell>
        <mxCell id="NCf4MELzwFDsRm1iRGMm-7" value="" style="curved=1;endArrow=classic;html=1;rounded=0;exitX=0.5;exitY=1;exitDx=0;exitDy=0;entryX=0.5;entryY=0;entryDx=0;entryDy=0;" edge="1" parent="1" source="NCf4MELzwFDsRm1iRGMm-1" target="NCf4MELzwFDsRm1iRGMm-2">
          <mxGeometry width="50" height="50" relative="1" as="geometry">
            <mxPoint x="390" y="440" as="sourcePoint" />
            <mxPoint x="440" y="390" as="targetPoint" />
            <Array as="points">
              <mxPoint x="400" y="300" />
              <mxPoint x="160" y="240" />
            </Array>
          </mxGeometry>
        </mxCell>
        <mxCell id="NCf4MELzwFDsRm1iRGMm-11" value="" style="edgeStyle=orthogonalEdgeStyle;rounded=0;orthogonalLoop=1;jettySize=auto;html=1;" edge="1" parent="1" source="NCf4MELzwFDsRm1iRGMm-8" target="NCf4MELzwFDsRm1iRGMm-10">
          <mxGeometry relative="1" as="geometry" />
        </mxCell>
        <mxCell id="NCf4MELzwFDsRm1iRGMm-8" value="front-end Basic&lt;br&gt;(html css js sass gulp bootstrap rwd npm)&amp;nbsp;" style="rounded=1;whiteSpace=wrap;html=1;" vertex="1" parent="1">
          <mxGeometry x="90" y="525" width="120" height="60" as="geometry" />
        </mxCell>
        <mxCell id="NCf4MELzwFDsRm1iRGMm-10" value="junior front-end dev&lt;br&gt;React, TS, Rest Api&amp;nbsp;" style="rounded=1;whiteSpace=wrap;html=1;" vertex="1" parent="1">
          <mxGeometry x="90" y="629.5" width="120" height="60" as="geometry" />
        </mxCell>
        <mxCell id="NCf4MELzwFDsRm1iRGMm-12" value="Python basics" style="rounded=1;whiteSpace=wrap;html=1;" vertex="1" parent="1">
          <mxGeometry x="610" y="420" width="120" height="60" as="geometry" />
        </mxCell>
        <mxCell id="NCf4MELzwFDsRm1iRGMm-14" value="Machine learning&amp;nbsp;" style="rounded=1;whiteSpace=wrap;html=1;" vertex="1" parent="1">
          <mxGeometry x="610" y="524.5" width="120" height="60" as="geometry" />
        </mxCell>
        <mxCell id="NCf4MELzwFDsRm1iRGMm-19" value="" style="edgeStyle=orthogonalEdgeStyle;rounded=0;orthogonalLoop=1;jettySize=auto;html=1;" edge="1" parent="1" source="NCf4MELzwFDsRm1iRGMm-15" target="NCf4MELzwFDsRm1iRGMm-18">
          <mxGeometry relative="1" as="geometry" />
        </mxCell>
        <mxCell id="NCf4MELzwFDsRm1iRGMm-15" value="back-end" style="rounded=1;whiteSpace=wrap;html=1;" vertex="1" parent="1">
          <mxGeometry x="280" y="420" width="120" height="60" as="geometry" />
        </mxCell>
        <mxCell id="NCf4MELzwFDsRm1iRGMm-16" value="" style="curved=1;endArrow=classic;html=1;rounded=0;exitX=1;exitY=0.5;exitDx=0;exitDy=0;entryX=0.5;entryY=0;entryDx=0;entryDy=0;" edge="1" parent="1" source="NCf4MELzwFDsRm1iRGMm-2" target="NCf4MELzwFDsRm1iRGMm-15">
          <mxGeometry width="50" height="50" relative="1" as="geometry">
            <mxPoint x="260" y="400" as="sourcePoint" />
            <mxPoint x="310" y="350" as="targetPoint" />
            <Array as="points">
              <mxPoint x="260" y="350" />
              <mxPoint x="340" y="370" />
            </Array>
          </mxGeometry>
        </mxCell>
        <mxCell id="NCf4MELzwFDsRm1iRGMm-18" value="back-end basic&lt;br&gt;(node.js, mysql, python)" style="rounded=1;whiteSpace=wrap;html=1;" vertex="1" parent="1">
          <mxGeometry x="280" y="525" width="120" height="60" as="geometry" />
        </mxCell>
        <mxCell id="NCf4MELzwFDsRm1iRGMm-22" value="" style="edgeStyle=orthogonalEdgeStyle;rounded=0;orthogonalLoop=1;jettySize=auto;html=1;" edge="1" parent="1" source="NCf4MELzwFDsRm1iRGMm-20" target="NCf4MELzwFDsRm1iRGMm-8">
          <mxGeometry relative="1" as="geometry" />
        </mxCell>
        <mxCell id="NCf4MELzwFDsRm1iRGMm-20" value="front-end" style="rounded=1;whiteSpace=wrap;html=1;" vertex="1" parent="1">
          <mxGeometry x="90" y="420" width="120" height="60" as="geometry" />
        </mxCell>
        <mxCell id="NCf4MELzwFDsRm1iRGMm-23" value="" style="curved=1;endArrow=classic;html=1;rounded=0;entryX=1;entryY=0.5;entryDx=0;entryDy=0;" edge="1" parent="1" target="NCf4MELzwFDsRm1iRGMm-18">
          <mxGeometry width="50" height="50" relative="1" as="geometry">
            <mxPoint x="580" y="330" as="sourcePoint" />
            <mxPoint x="656" y="440" as="targetPoint" />
            <Array as="points">
              <mxPoint x="406" y="420" />
              <mxPoint x="606" y="370" />
            </Array>
          </mxGeometry>
        </mxCell>
      </root>
    </mxGraphModel>
  </diagram>
</mxfile>
